<?xml version="1.0" encoding="UTF-8"?>
<svg xmlns="http://www.w3.org/2000/svg" id="Layer_1" data-name="Layer 1" viewBox="0 0 24 24">
  <path d="m2.395,16.061c-.87.104-1.696.437-2.395.964V5C0,2.624,1.672.575,4,.1v15.9h-1c-.203,0-.406.02-.605.061Zm15.605-6.061c.692,0,1.359.097,2,.263v-5.263c0-2.761-2.239-5-5-5H6v16h4.263c.892-3.445,4.017-6,7.737-6Zm-8,8H3c-1.657,0-3,1.343-3,3s1.343,3,3,3h9.726c-1.667-1.467-2.726-3.61-2.726-6Zm14,0c0,3.314-2.686,6-6,6s-6-2.686-6-6,2.686-6,6-6,6,2.686,6,6Zm-5,1c0-.552-.448-1-1-1s-1,.448-1,1v2c0,.552.448,1,1,1s1-.448,1-1v-2Zm.5-3.5c0-.828-.672-1.5-1.5-1.5s-1.5.672-1.5,1.5.672,1.5,1.5,1.5,1.5-.672,1.5-1.5Z"/>
</svg>
